<svg height="700pt" preserveAspectRatio="xMidYMid meet" viewBox="0 0 700 700" width="700pt"
xmlns="http://www.w3.org/2000/svg">
<path fill="rgba(210, 40, 86, 1)" d="m1590 5959c-305-33-559-199-702-459-42-76-66-153-124-393-31-128-86-351-121-497s-66-276-69-289-43-179-90-369c-46-191-86-355-88-367-2-11-11-49-20-85s-18-74-21-85c-2-11-22-94-45-185-82-333-85-357-53-412 40-69 83-78 370-83 104-2 191-3 194-4 4-1 12-29 18-63 28-149 104-340 184-465 84-131 173-228 302-327 238-185 467-266 765-271 164-3 271 11 415 54 101 30 280 122 371 190 279 210 447 471 519 808l18 82 96-2 96-2 17-85c23-108 51-195 99-296 38-82 102-193 136-235 57-71 125-142 218-224 48-43 184-130 265-169 78-38 207-83 269-92 20-3 39-8 43-11 29-17 333-25 428-11 484 71 900 424 1055 893 14 44 31 112 37 150 7 39 13 72 15 74 2 3 83 6 181 7 278 4 294 5 333 27 20 10 47 37 59 59 29 52 29 56-80 508-23 96-43 182-45 190-2 9-19 81-38 160-50 202-109 443-111 455-2 6-6 21-9 35-11 41-177 733-181 755-3 11-16 69-31 129s-28 117-30 126c-9 44-49 173-77 243-103 261-332 453-613 513-283 61-420 18-417-133 1-53 22-95 64-126 32-24 52-29 183-42 155-17 280-72 374-167 91-93 112-143 196-488 41-168 78-316 82-330 3-14 7-29 9-35 3-17 52-216 111-455 30-124 59-243 63-265 5-22 25-105 45-185 19-79 37-154 39-165s9-40 16-65 14-54 16-65 18-76 35-145 33-136 36-150c12-57 16-55-94-54-56 0-105 3-108 6s-19 57-34 119c-31 125-73 238-122 326-190 344-505 576-894 659-104 22-344 26-445 8-41-7-89-16-106-18-46-8-201-64-269-98-363-182-628-530-706-928-8-36-17-68-21-71-5-3-48-6-97-7l-88-1-18 82c-45 213-149 435-270 577-28 34-170 174-197 195-162 129-363 220-583 265-116 23-372 21-486-4-163-35-325-105-469-201-78-53-262-225-303-285-145-209-203-344-254-584l-8-40-109-2-108-3 7 37c6 35 49 213 131 552 20 80 37 152 39 160s17 74 35 145c54 221 101 419 105 435l20 80c9 36 19 76 22 90 14 81 165 675 184 725 48 130 135 225 262 287 83 40 134 54 232 63 39 3 83 8 100 11 106 18 161 103 134 209-23 93-107 123-289 104zm615-2090c155-5 374-90 506-196 143-114 261-272 314-418 80-223 90-416 30-616-52-174-117-286-244-422-36-38-138-122-176-144-93-54-243-114-320-128-280-48-532 3-756 156-186 126-341 360-395 594-4 17-9 98-11 181-4 133-2 163 17 240 63 255 195 450 400 591 148 101 376 173 530 166 25-1 72-2 105-4zm2815-3c83-8 168-31 254-69 64-28 163-83 176-97 3-3 31-24 62-48 97-74 168-158 233-277 114-208 149-420 109-650-17-98-27-131-71-225-112-242-328-440-572-525-92-32-115-35-291-41-132-3-168-1-240 16-47 11-92 23-100 27-8 3-17 7-20 8-168 57-364 211-466 365-82 125-144 281-161 405-11 77-7 242 6 320 60 340 316 638 646 749 142 48 254 59 435 42z"
transform="matrix(.1 0 0 -.1 0 700)"/>
</svg>
